/* XPM */
static char * font_xpm[] = {
"48 79 2 1",
" 	c None",
".	c #FF0000",
" ..  ...   ..  ...  .... ....  ..  .  . ...     ",
".  . .  . .  . .  . .    .    .  . .  .  .      ",
".  . .  . .    .  . .    .    .    .  .  .      ",
".  . ...  .    .  . .... ...  .    ....  .      ",
".... .  . .    .  . .    .    . .. .  .  .      ",
".  . .  . .  . .  . .    .    .  . .  .  .      ",
".  . ...   ..  ...  .... .     ..  .  . ...     ",
"                                                ",
"   . .  . .    .   . .  .  ..  ...   ..  ...    ",
"   . .  . .    .. .. .  . .  . .  . .  . .  .   ",
"   . . .  .    . . . .. . .  . .  . .  . .  .   ",
"   . ..   .    .   . . .. .  . ...  .  . ...    ",
".  . . .  .    .   . .  . .  . .    .  . .  .   ",
".  . .  . .    .   . .  . .  . .    . .  .  .   ",
" ..  .  . .... .   . .  .  ..  .     . . .  .   ",
"                                                ",
" ..  ... .  . .   . .   . .  . .  . ....        ",
".  .  .  .  . .   . .   . .  . .  .    .        ",
".     .  .  . .   . .   . .  . .  .    .        ",
" ..   .  .  . .   . .   .  ..   ...  ..         ",
"   .  .  .  . .   . . . . .  .    . .           ",
".  .  .  .  .  . .  . . . .  . .  . .           ",
" ..   .   ..    .    . .  .  .  ..  ....        ",
"                                                ",
"                                                ",
"     .            .       ..       .    .       ",
"     .            .      .  .      .            ",
" ..  .     ..     .  ..  .     ... .    .       ",
"   . ...  .  .  ... .  . ...  .  . ...  .       ",
" ... .  . .    .  . .... .    .  . .  . .       ",
".  . .  . .  . .  . .    .     ... .  . .       ",
" ... ...   ..   ...  ... .       . .  . .       ",
"                                 .              ",
"                               ..               ",
"                                                ",
"  . .    .                                      ",
"    .  . .                                      ",
"  . .  . .  ....  ...   ..   ..   ..  . ..      ",
"  . ...  .  . . . .  . .  . .  . .  . ..        ",
"  . .  . .  . . . .  . .  . .  . .  . .         ",
"  . .  . .  . . . .  . .  . ...  .  . .         ",
". . .  .  . . . . .  .  ..  .     ... .         ",
" .                          .       .           ",
"                            .       .           ",
"                                                ",
"      .                                         ",
"      .                                         ",
" ... .... .  . .   . .   . .  . .  . ....       ",
".     .   .  . .   . .   . .  . .  .    .       ",
" ..   .   .  . .   . . . .  ..  .  .  ..        ",
"   .  . . .  .  . .  . . . .  .  ... .          ",
"...    .   ...   .    . .  .  .    . ....       ",
"                                   .            ",
"                                 ..             ",
"                                                ",
" .   ..   ..    .. ....   .  ....  ..   ..   .. ",
"..  .  . .  .  . . .     .      . .  . .  . .  .",
" .     .    . .  . ...  .       . .  . .  . . ..",
" .    .    .  ....    . ...    .   ..   ... .. .",
" .   .      .    .    . .  .  .   .  .    . .  .",
" .  .    .  .    .    . .  .  .   .  .   .  .  .",
"... ....  ..     . ...   ..   .    ..   .    .. ",
"                                                ",
" ..  .             . .  . .     .               ",
".  . .      .     .   . . .    .   ..           ",
"   . .            .   .        .   .. .      .  ",
"  .  .            .   .       .      .  ... ... ",
" .   .      .   . .   .      .      .        .  ",
"                  .   .      .     . ..         ",
" .   . .  .    .   . .      .        ..         ",
"         .    .                                 ",
"                                                ",
"...   . .    ...            .                   ",
"     .   .  .  .  . .       .                   ",
"... .     . . .. .....      .                   ",
"     .   .  . ..  . .       .                   ",
"      . .   . .. .....      .                   ",
"            .     . .  .... .                   ",
"             ...            .                   "};
